<svg id="Layer_1" data-name="Layer 1" xmlns="http://www.w3.org/2000/svg" viewBox="0 0 943 466"><defs><style>.cls-1{fill:#fff;}.cls-2{fill:#861f41;}</style></defs><title>maroonVTonWhite</title><rect class="cls-1" width="943" height="466"/><path class="cls-2" d="M531.1654,19.25284a158.67718,158.67718,0,0,0-139.55864,83.16947l-34.13754,63.09547-3.96835,7.33546-3.8448,7.10622v.00022L246.54148,370.54,78.21763,55.93011H153.081l60.28463,112.0826,31.63225,58.81145,32.65656-58.24934L340.80786,55.93011h54.59a182.22922,182.22922,0,0,1,45.56805-36.67727H319.32393L245.664,150.638,174.99646,19.25284H17l229.36061,428.6929L374.03389,211.97416l21.167-39.12092,3.96836-7.33546,24.55152-45.37513q2.00657-3.70915,4.24413-7.24077a122.48111,122.48111,0,0,1,95.117-56.68523q4.16893-.28542,8.388-.28654H865.7l-33.74715,62.89758H677.2944l-10.34889,19.4445-143.099,268.86695H447.96422L573.46529,174.05738l29.11262-54.06629H451.97556c-8.59579,13.59534-20.91267,36.67727-20.91267,36.67727H541.174L386.56215,443.81641H545.873L699.32092,155.505h154.5725L927,19.25284Z"/></svg>